<?xml version="1.0" encoding="UTF-8"?>
<!DOCTYPE svg PUBLIC "-//W3C//DTD SVG 1.1//EN" "http://www.w3.org/Graphics/SVG/1.1/DTD/svg11.dtd">
<svg xmlns="http://www.w3.org/2000/svg" version="1.1" width="407px" height="407px" style="shape-rendering:geometricPrecision; text-rendering:geometricPrecision; image-rendering:optimizeQuality; fill-rule:evenodd; clip-rule:evenodd" xmlns:xlink="http://www.w3.org/1999/xlink">
<g><path style="opacity:0.985" fill="#021c5e" d="M 186.5,-0.5 C 197.833,-0.5 209.167,-0.5 220.5,-0.5C 301.071,9.69708 358.238,51.6971 392,125.5C 399.215,144.03 404.049,163.03 406.5,182.5C 406.5,196.5 406.5,210.5 406.5,224.5C 395.573,301.194 355.24,356.361 285.5,390C 265.759,398.183 245.426,403.683 224.5,406.5C 210.167,406.5 195.833,406.5 181.5,406.5C 106.804,395.625 52.3037,356.625 18,289.5C 8.37337,267.65 2.2067,244.983 -0.5,221.5C -0.5,209.167 -0.5,196.833 -0.5,184.5C 9.87454,106.307 50.5412,50.1403 121.5,16C 142.459,7.17725 164.126,1.67725 186.5,-0.5 Z"/></g>
<g><path style="opacity:1" fill="#e6e7e7" d="M 187.5,16.5 C 266.459,14.218 326.292,46.5514 367,113.5C 397.276,174 396.943,234.333 366,294.5C 319.078,368.699 251.911,399.199 164.5,386C 106.047,371.534 62.8801,337.7 35,284.5C 8.54426,225.474 10.5443,167.474 41,110.5C 74.596,55.6078 123.429,24.2744 187.5,16.5 Z"/></g>
<g><path style="opacity:1" fill="#546490" d="M 301.5,55.5 C 304.687,54.1944 308.02,54.1944 311.5,55.5C 311.376,56.1067 311.043,56.44 310.5,56.5C 307.713,55.5233 304.713,55.19 301.5,55.5 Z"/></g>
<g><path style="opacity:1" fill="#011b5e" d="M 301.5,55.5 C 304.713,55.19 307.713,55.5233 310.5,56.5C 281.038,138.051 251.872,219.718 223,301.5C 212.894,323.606 196.394,338.772 173.5,347C 150.121,355.299 126.121,357.799 101.5,354.5C 102.763,340.725 104.763,327.059 107.5,313.5C 112.132,312.672 116.798,312.172 121.5,312C 127.272,309.894 131.438,306.061 134,300.5C 134.66,221.497 135.494,142.497 136.5,63.5C 158.151,62.2008 179.818,61.2008 201.5,60.5C 200.507,105.197 198.673,149.863 196,194.5C 195.333,204.833 195.333,215.167 196,225.5C 210.989,169.877 225.822,114.211 240.5,58.5C 260.789,56.9355 281.123,55.9355 301.5,55.5 Z"/></g>
</svg>
